<svg xmlns="http://www.w3.org/2000/svg" viewBox="0 0 100 100">
  <rect width="100" height="100" rx="16" fill="#0a0f1e"/>
  <g transform="translate(50,54)">
    <rect x="-18" y="-5" width="36" height="10" rx="3" fill="#a88820"/>
    <rect x="-12" y="5" width="24" height="14" rx="2" fill="#a88820"/>
    <rect x="-20" y="17" width="40" height="6" rx="3" fill="#a88820"/>
    <rect x="-12" y="-5" width="24" height="10" rx="2" fill="#f5c842"/>
    <rect x="-9" y="5" width="18" height="12" rx="2" fill="#f5c842"/>
    <path d="M-32,-38 Q-38,-38 -38,-30 Q-38,-20 -28,-15 L-22,-13" fill="none" stroke="#f5c842" stroke-width="5" stroke-linecap="round"/>
    <path d="M32,-38 Q38,-38 38,-30 Q38,-20 28,-15 L22,-13" fill="none" stroke="#f5c842" stroke-width="5" stroke-linecap="round"/>
    <ellipse cx="0" cy="-36" rx="26" ry="29" fill="#f5c842"/>
    <ellipse cx="0" cy="-36" rx="22" ry="25" fill="#e8a500"/>
    <text x="-5" y="-20"
      font-family="'Arial Black', sans-serif"
      font-size="30"
      font-weight="900"
      fill="#0a0f1e"
      text-anchor="middle">P</text>
  </g>
</svg>
